# xmcd
#
# Track frame offsets:
#	150
#	13587
#	26015
#	39910
#	51982
#	66122
#	78992
#	93530
#	105205
#	118932
#	131682
#	143252
#	154145
#	168000
#	180975
#	192155
#	204147
#	218505
#	231965
#	245180
#
# Disc length: 3428 seconds
# Revision: 2
# Processed by: cddbd v1.5.2PL0 Copyright (c) Steve Scherf et al.
# Submitted via: dBpowerAMP V12.0
#
DISCID=fe0d6214
DTITLE=Roosevelt Sykes - Raining in my heart
DYEAR=1951
DGENRE=Blues
TTITLE0=Fine and brown
TTITLE1=Lucky blues
TTITLE2=Raining in my heart
TTITLE3=Heavy heart
TTITLE4=4:00 Blues
TTITLE5=Too hot to handle (Hot boogie)
TTITLE6=Tell me true
TTITLE7=Ruthie Lee
TTITLE8=Something like that
TTITLE9=Security Blues
TTITLE10=Boogie Sykes
TTITLE11=Listen to my song (She's the one for Me)
TTITLE12=Toy piano blues
TTITLE13=Been through the mill
TTITLE14=Walkin' this boogie
TTITLE15=Come back Baby
TTITLE16=44 Blues
TTITLE17=4:00 Blues (alternate)
TTITLE18=Fine and Brown
TTITLE19=Listen to my song (She's the one for Me) (alternate)
EXTD=
EXTT0=
EXTT1=
EXTT2=
EXTT3=
EXTT4=
EXTT5=
EXTT6=
EXTT7=
EXTT8=
EXTT9=
EXTT10=
EXTT11=
EXTT12=
EXTT13=
EXTT14=
EXTT15=
EXTT16=
EXTT17=
EXTT18=
EXTT19=
PLAYORDER=
